# xmcd
#
# Track frame offsets:
#	150
#	13507
#	31992
#	47277
#	65162
#	80972
#	100135
#	117370
#	135047
#	150232
#	165355
#
# Disc length: 2469 seconds
# Revision: 0
# Processed by: cddbd v1.5.2PL0 Copyright (c) Steve Scherf et al.
# Submitted via: dBpowerAMP V12.0
#
DISCID=7909a30b
DTITLE=Brice Long - Advance Music
DYEAR=1900
DGENRE=Country
TTITLE0=When You Ain't Got Me
TTITLE1=Anywhere But Here
TTITLE2=Sorry
TTITLE3=It Won't Break My Heart
TTITLE4=It's Only Monday
TTITLE5=When Two Worlds Collide
TTITLE6=I'm No Quitter
TTITLE7=Back To New Orleans
TTITLE8=Meat And Potato Man
TTITLE9=When The Cat's Away
TTITLE10=She's On My Side
EXTD=
EXTT0=
EXTT1=
EXTT2=
EXTT3=
EXTT4=
EXTT5=
EXTT6=
EXTT7=
EXTT8=
EXTT9=
EXTT10=
PLAYORDER=
